<mxfile host="app.diagrams.net" modified="2023-05-04T21:18:21.120Z" agent="Mozilla/5.0 (Macintosh; Intel Mac OS X 10_15_7) AppleWebKit/537.36 (KHTML, like Gecko) Chrome/112.0.0.0 Safari/537.36" etag="8kbWboqhrSKFuKBwyAon" version="21.2.8" type="github">
  <diagram name="Page-1" id="A9kyWwOAvtzQ55pvn1SJ">
    <mxGraphModel dx="1434" dy="690" grid="1" gridSize="10" guides="1" tooltips="1" connect="1" arrows="1" fold="1" page="1" pageScale="1" pageWidth="850" pageHeight="1100" math="0" shadow="0">
      <root>
        <mxCell id="0" />
        <mxCell id="1" parent="0" />
        <mxCell id="Gg4hyN-uWuP1Ibx5ByMN-1" value="Database" style="shape=cylinder3;whiteSpace=wrap;html=1;boundedLbl=1;backgroundOutline=1;size=15;fillColor=#dae8fc;strokeColor=#6c8ebf;" vertex="1" parent="1">
          <mxGeometry x="395" y="340" width="60" height="80" as="geometry" />
        </mxCell>
        <mxCell id="Gg4hyN-uWuP1Ibx5ByMN-7" style="edgeStyle=orthogonalEdgeStyle;rounded=0;orthogonalLoop=1;jettySize=auto;html=1;entryX=0;entryY=0.5;entryDx=0;entryDy=0;" edge="1" parent="1" source="Gg4hyN-uWuP1Ibx5ByMN-2" target="Gg4hyN-uWuP1Ibx5ByMN-4">
          <mxGeometry relative="1" as="geometry" />
        </mxCell>
        <mxCell id="Gg4hyN-uWuP1Ibx5ByMN-2" value="Client (WEB)" style="shape=parallelogram;perimeter=parallelogramPerimeter;whiteSpace=wrap;html=1;fixedSize=1;fillColor=#fff2cc;strokeColor=#d6b656;" vertex="1" parent="1">
          <mxGeometry x="170" y="210" width="120" height="60" as="geometry" />
        </mxCell>
        <mxCell id="Gg4hyN-uWuP1Ibx5ByMN-8" style="edgeStyle=orthogonalEdgeStyle;rounded=0;orthogonalLoop=1;jettySize=auto;html=1;" edge="1" parent="1" source="Gg4hyN-uWuP1Ibx5ByMN-3" target="Gg4hyN-uWuP1Ibx5ByMN-4">
          <mxGeometry relative="1" as="geometry" />
        </mxCell>
        <mxCell id="Gg4hyN-uWuP1Ibx5ByMN-3" value="Backoffice (CRM)" style="shape=parallelogram;perimeter=parallelogramPerimeter;whiteSpace=wrap;html=1;fixedSize=1;fillColor=#d5e8d4;strokeColor=#82b366;" vertex="1" parent="1">
          <mxGeometry x="560" y="210" width="120" height="60" as="geometry" />
        </mxCell>
        <mxCell id="Gg4hyN-uWuP1Ibx5ByMN-6" style="edgeStyle=orthogonalEdgeStyle;rounded=0;orthogonalLoop=1;jettySize=auto;html=1;" edge="1" parent="1" source="Gg4hyN-uWuP1Ibx5ByMN-4" target="Gg4hyN-uWuP1Ibx5ByMN-1">
          <mxGeometry relative="1" as="geometry" />
        </mxCell>
        <mxCell id="Gg4hyN-uWuP1Ibx5ByMN-9" style="edgeStyle=orthogonalEdgeStyle;rounded=0;orthogonalLoop=1;jettySize=auto;html=1;" edge="1" parent="1" source="Gg4hyN-uWuP1Ibx5ByMN-4" target="Gg4hyN-uWuP1Ibx5ByMN-5">
          <mxGeometry relative="1" as="geometry" />
        </mxCell>
        <mxCell id="Gg4hyN-uWuP1Ibx5ByMN-4" value="DDC API (Backend Service)" style="rounded=0;whiteSpace=wrap;html=1;fillColor=#f5f5f5;strokeColor=#666666;fontColor=#333333;" vertex="1" parent="1">
          <mxGeometry x="365" y="210" width="120" height="60" as="geometry" />
        </mxCell>
        <mxCell id="Gg4hyN-uWuP1Ibx5ByMN-5" value="Midtrans" style="rhombus;whiteSpace=wrap;html=1;fillColor=#e1d5e7;strokeColor=#9673a6;" vertex="1" parent="1">
          <mxGeometry x="385" y="70" width="80" height="80" as="geometry" />
        </mxCell>
      </root>
    </mxGraphModel>
  </diagram>
</mxfile>
